<?xml version="1.0" standalone="no"?>
<!DOCTYPE svg PUBLIC "-//W3C//DTD SVG 20010904//EN"
 "http://www.w3.org/TR/2001/REC-SVG-20010904/DTD/svg10.dtd">
<svg version="1.0" xmlns="http://www.w3.org/2000/svg"
 width="300.000000pt" height="286.000000pt" viewBox="0 0 300.000000 286.000000"
 preserveAspectRatio="xMidYMid meet">
<metadata>
Created by potrace 1.10, written by Peter Selinger 2001-2011
</metadata>
<g transform="translate(0.000000,286.000000) scale(0.100000,-0.100000)"
fill="#000000" stroke="none">
<path d="M1491 2769 c-12 -10 -26 -17 -30 -15 -3 2 -7 -12 -9 -33 -1 -20 -12
-76 -25 -125 l-22 -90 -90 -17 c-92 -18 -208 -56 -280 -91 -147 -74 -318 -217
-415 -348 -71 -95 -145 -256 -177 -385 -15 -60 -28 -111 -28 -112 -1 -1 -52
-13 -114 -27 -62 -13 -114 -26 -115 -28 -21 -32 -35 -58 -32 -58 3 0 38 7 78
16 40 8 136 24 213 34 77 11 192 28 255 40 146 25 170 26 170 1 0 -10 3 -32 6
-48 l6 -30 -74 -7 c-88 -8 -573 -30 -641 -29 l-48 0 32 -33 c20 -20 47 -36 68
-40 20 -4 60 -15 90 -25 30 -11 66 -19 81 -19 26 0 28 -4 40 -67 40 -218 199
-489 369 -630 83 -69 212 -147 310 -188 83 -35 228 -75 273 -75 22 0 29 -6 34
-27 3 -16 15 -62 25 -105 10 -42 19 -86 19 -97 0 -17 6 -21 35 -21 32 0 35 2
30 23 -3 12 -16 94 -31 182 -14 88 -36 214 -49 280 -27 141 -45 256 -45 289 0
14 -7 32 -16 40 -8 9 -17 25 -19 37 -6 31 -23 47 -71 68 -123 55 -252 184
-303 304 -41 95 -60 190 -63 312 l-3 120 85 -45 c64 -33 79 -46 63 -48 -12 -2
-31 2 -42 7 -11 6 -28 11 -38 11 -17 0 -18 -8 -12 -112 10 -188 75 -328 210
-453 119 -110 138 -92 25 24 -67 68 -146 179 -146 204 0 5 15 7 33 3 41 -8
195 -55 225 -69 21 -10 21 -11 5 -36 -66 -101 -37 -145 57 -86 22 14 43 25 48
25 5 0 16 -46 26 -103 10 -56 29 -140 42 -187 31 -111 32 -123 35 -340 1 -148
3 -174 10 -130 9 53 3 345 -7 361 -2 4 1 27 7 51 20 81 37 183 44 268 4 47 10
88 14 92 4 4 18 -3 32 -16 36 -33 85 -57 103 -50 24 9 19 42 -14 101 -33 57
-32 73 3 73 12 0 56 10 97 21 41 12 91 23 110 26 19 3 44 12 55 20 18 13 16
14 -30 10 -27 -2 -94 -16 -147 -30 -54 -15 -120 -29 -148 -33 -50 -7 -50 -6
-41 17 5 15 15 23 27 22 11 -2 64 3 119 11 l100 14 -95 3 c-52 1 -105 1 -117
0 -24 -2 -51 35 -36 50 5 5 87 -2 193 -16 101 -14 185 -23 187 -21 11 10 -77
37 -181 55 -65 11 -121 23 -124 26 -3 3 4 15 14 28 52 57 65 96 40 116 -22 18
-62 3 -106 -40 -22 -21 -45 -39 -50 -39 -6 0 -10 24 -10 54 l0 55 43 4 c23 3
62 5 87 6 127 2 334 72 360 120 14 27 13 64 -2 80 -11 11 -10 13 5 7 10 -3 20
-6 23 -6 14 0 34 -68 34 -118 0 -71 19 -93 95 -111 56 -13 117 -58 120 -87 1
-10 5 -32 9 -49 4 -16 9 -40 12 -53 2 -12 10 -22 17 -21 7 1 20 -1 30 -6 10
-4 95 -5 189 -3 135 4 167 2 154 -7 -22 -16 -20 -24 4 -18 11 3 20 3 20 0 0
-3 -34 -15 -75 -28 -41 -12 -80 -29 -88 -38 -7 -9 -28 -70 -46 -135 -95 -354
-333 -618 -676 -753 -44 -17 -115 -38 -158 -46 -80 -15 -103 -27 -118 -62 -6
-13 -8 19 -5 90 2 61 0 101 -4 89 -10 -25 -70 -390 -70 -421 0 -13 -4 -23 -9
-23 -5 0 -8 -11 -7 -25 1 -29 16 -34 16 -6 0 11 12 28 28 39 23 17 31 38 57
148 l31 127 89 18 c171 35 339 117 484 235 96 80 143 132 220 247 84 124 141
265 176 435 4 18 12 35 18 36 7 2 57 14 112 26 111 26 121 30 127 64 5 22 2
24 -70 30 -41 3 -153 6 -249 6 l-173 0 0 34 c0 55 -38 132 -79 160 -39 27
-114 48 -138 39 -12 -5 -14 2 -12 28 1 19 1 57 0 86 -1 63 -29 100 -97 132
-97 46 -340 84 -384 61 -12 -7 -21 -8 -19 -3 37 85 40 101 30 141 -8 28 -26
53 -59 82 -47 41 -71 74 -72 97 0 23 51 73 76 73 13 0 24 5 24 10 0 19 101 10
176 -15 269 -90 462 -260 593 -520 39 -78 96 -253 86 -263 -3 -3 -30 0 -60 7
-57 13 -75 9 -75 -14 0 -24 33 -34 187 -60 82 -14 182 -33 224 -42 42 -9 85
-13 95 -9 16 6 16 9 -7 30 -17 16 -55 29 -129 45 -58 13 -108 26 -111 29 -4 4
-18 52 -32 107 -13 56 -39 136 -57 179 -100 241 -326 465 -581 578 -91 40
-223 78 -275 78 -29 0 -32 4 -38 38 -15 79 -60 222 -70 218 -6 -2 -19 3 -28
12 -10 8 -18 11 -18 6 0 -22 64 -349 75 -385 4 -12 -1 -15 -25 -11 -24 3 -37
-3 -65 -31 -59 -59 -46 -120 43 -194 52 -44 64 -67 79 -150 7 -41 6 -55 -5
-66 -12 -12 -3 -15 60 -21 177 -17 337 -63 352 -101 9 -24 1 -32 -54 -60 -82
-42 -187 -66 -312 -72 l-116 -6 -17 32 c-19 37 -34 36 -53 -3 l-14 -28 -111 7
c-144 8 -213 20 -297 52 -79 29 -110 55 -94 81 26 43 158 81 356 102 129 13
167 40 84 58 -84 18 -311 -17 -448 -68 -78 -29 -107 -63 -118 -139 -5 -34 -6
-85 -3 -114 l5 -52 -53 -3 c-30 -1 -105 -11 -168 -22 -63 -11 -117 -17 -119
-15 -3 3 2 33 11 68 63 259 219 472 450 617 84 52 184 95 284 120 92 24 113
25 113 5 0 -20 13 -19 39 3 13 11 28 46 41 95 19 76 55 306 48 312 -2 2 -14
-5 -27 -16z m-69 -334 c-6 -12 -28 -18 -73 -21 -280 -17 -632 -278 -761 -563
-68 -148 -103 -281 -78 -296 22 -14 8 -25 -31 -25 -37 0 -40 2 -33 23 4 12 10
36 14 52 58 235 149 406 295 550 73 72 167 141 268 195 75 40 267 109 309 111
13 0 39 6 58 13 32 12 35 11 38 -5 2 -10 -1 -26 -6 -34z m363 15 c308 -78 564
-274 710 -545 42 -79 105 -259 105 -302 0 -16 5 -34 12 -41 18 -18 -3 -30 -37
-21 -29 8 -30 11 -27 48 10 102 -130 392 -249 518 -153 162 -411 299 -578 307
-67 4 -78 12 -80 60 -1 13 3 16 17 11 9 -4 67 -20 127 -35z m-822 -637 c-4
-33 -10 -42 -29 -46 -20 -3 -24 0 -24 20 0 21 46 81 55 71 2 -2 1 -22 -2 -45z
m586 -240 l1 -113 -24 0 c-13 0 -31 -3 -40 -6 -23 -9 -21 20 9 113 13 43 27
96 31 118 11 68 23 13 23 -112z m-374 102 c33 -8 112 -18 175 -21 63 -4 118
-11 121 -16 9 -15 -13 -79 -29 -85 -7 -3 -25 6 -40 20 -36 33 -85 57 -100 48
-24 -14 -20 -56 10 -99 16 -24 28 -48 25 -55 -2 -7 -51 -20 -107 -31 -57 -10
-118 -25 -137 -32 -19 -8 -38 -12 -43 -9 -13 8 -27 68 -35 147 -8 73 -9 70 48
82 21 5 29 14 34 36 6 35 1 34 78 15z m243 -169 c46 -50 52 -67 22 -59 -24 6
-140 132 -140 151 0 17 62 -31 118 -92z m306 47 c-82 -104 -113 -129 -129
-104 -7 13 130 151 150 151 12 0 6 -13 -21 -47z m-788 -189 c22 -61 24 -91 6
-80 -4 2 -54 7 -112 10 -166 11 -397 52 -565 100 -46 13 -27 14 265 16 236 1
323 4 345 14 17 7 32 12 34 10 2 -2 15 -34 27 -70z m508 67 c4 -5 4 -16 0 -24
-4 -11 -41 -18 -147 -28 l-142 -13 100 -18 c55 -9 120 -19 145 -21 60 -5 53
-21 -11 -25 -36 -2 -84 6 -155 27 -57 17 -116 31 -131 31 -16 0 -35 5 -43 10
-11 7 -5 10 22 10 21 0 70 7 110 15 80 17 216 42 235 44 6 0 14 -3 17 -8z
m120 -34 c12 -9 17 -23 14 -42 -2 -25 -8 -30 -34 -33 -20 -2 -36 4 -48 17 -18
19 -18 22 -2 46 18 28 43 32 70 12z m-1069 -89 c6 -4 12 -24 13 -45 4 -52 18
-105 51 -189 73 -182 219 -364 388 -482 102 -71 294 -148 394 -159 55 -5 57
-5 72 23 11 21 17 25 20 14 16 -55 27 -116 26 -148 l-1 -37 -13 32 c-15 32
-40 45 -118 58 -114 19 -312 104 -408 175 -29 22 -55 40 -58 40 -12 1 -137
127 -188 190 -65 80 -176 301 -198 395 -9 39 -20 84 -25 102 -4 18 -5 34 -3
37 7 7 34 3 48 -6z m212 -34 c87 -8 178 -17 202 -19 58 -5 96 -55 41 -55 -49
0 -154 -69 -169 -112 -19 -53 22 -116 109 -166 25 -14 47 -27 49 -28 1 -2 -23
-37 -54 -79 -32 -42 -55 -78 -53 -81 6 -5 163 110 173 127 5 7 15 3 29 -10 30
-28 157 -71 233 -78 34 -3 65 -8 70 -12 5 -3 19 -68 31 -144 13 -75 26 -145
29 -153 5 -14 0 -15 -38 -9 -117 19 -301 94 -402 163 -186 128 -362 383 -413
597 -16 71 -17 88 -5 80 6 -3 81 -12 168 -21z m769 6 c5 -5 28 -10 52 -12 62
-4 63 -13 27 -253 -8 -55 -15 -125 -16 -155 -1 -55 -3 -46 -60 327 l-12 82
-56 -58 c-53 -54 -101 -90 -101 -75 0 17 84 117 113 135 37 22 40 22 53 9z
m214 -59 c22 -33 44 -63 50 -66 12 -8 13 -25 1 -25 -13 0 -110 89 -122 111 -5
11 -7 24 -4 29 14 22 36 7 75 -49z m-656 -85 c43 -57 152 -132 220 -151 33 -9
67 -19 74 -21 11 -3 18 -34 7 -34 -18 0 -294 62 -350 79 -86 25 -137 69 -114
97 14 17 104 62 125 63 7 1 23 -14 38 -33z m-91 -146 c72 -32 212 -66 312 -76
69 -7 95 -17 95 -37 0 -25 -302 35 -402 80 -64 28 -108 72 -108 106 0 19 3 17
20 -11 14 -23 40 -42 83 -62z m157 -117 c0 -5 23 -9 50 -11 28 -1 62 -7 76
-12 45 -18 112 -12 135 11 11 11 22 19 24 17 5 -5 12 -138 8 -138 -2 0 -14 11
-26 25 -18 21 -38 29 -102 39 -91 15 -198 53 -190 67 7 11 25 12 25 2z"/>
<path d="M1553 1180 c0 -41 2 -58 4 -37 2 20 2 54 0 75 -2 20 -4 3 -4 -38z"/>
<path d="M1238 2728 c-21 -6 -38 -14 -38 -19 0 -11 14 -12 24 -1 4 4 24 12 44
18 45 15 21 16 -30 2z"/>
<path d="M1990 2673 c1 -9 76 -46 99 -49 8 -2 17 -7 20 -13 3 -5 20 -13 36
-17 17 -4 33 -12 37 -18 4 -6 11 -11 15 -11 13 -1 76 -42 96 -62 14 -14 18
-15 15 -3 -5 24 -78 71 -203 132 -33 16 -68 33 -77 39 -21 11 -38 12 -38 2z"/>
<path d="M935 2619 c-102 -51 -251 -153 -247 -169 1 -6 -2 -8 -8 -5 -19 12
-185 -166 -264 -282 -124 -184 -199 -378 -222 -573 -3 -24 -8 -49 -12 -55 -3
-5 2 -4 11 4 9 7 19 29 22 50 16 101 61 259 95 336 5 11 12 31 16 45 4 14 17
39 30 56 13 17 24 36 24 41 0 6 7 17 16 24 9 7 20 22 25 34 9 20 16 31 70 111
37 53 119 140 176 186 116 91 151 117 193 138 25 12 53 29 62 37 9 8 21 12 27
9 5 -4 13 0 18 7 4 8 22 21 38 30 65 35 5 15 -70 -24z"/>
<path d="M1715 2652 c-13 -13 -3 -41 16 -47 21 -7 39 7 39 31 0 12 -46 25 -55
16z"/>
<path d="M1310 2631 c0 -20 25 -35 41 -25 5 3 9 14 9 25 0 14 -7 19 -25 19
-18 0 -25 -5 -25 -19z"/>
<path d="M1218 2633 c-22 -5 -22 -13 -4 -38 18 -24 49 -13 44 17 -3 23 -13 28
-40 21z"/>
<path d="M1814 2625 c-9 -23 3 -45 26 -45 11 0 20 7 20 15 0 8 0 18 1 22 0 4
-9 11 -21 15 -14 5 -22 3 -26 -7z"/>
<path d="M1118 2598 c-16 -5 -28 -13 -28 -18 0 -15 29 -31 51 -28 27 4 33 19
17 40 -10 12 -19 14 -40 6z"/>
<path d="M1912 2598 c-19 -19 -14 -37 14 -44 35 -9 48 6 28 34 -17 25 -25 27
-42 10z"/>
<path d="M1983 2554 c-3 -8 1 -22 10 -31 14 -14 16 -13 26 6 7 12 9 26 6 31
-10 15 -35 12 -42 -6z"/>
<path d="M1006 2552 c-9 -15 23 -52 40 -45 23 8 13 47 -13 51 -11 2 -24 -1
-27 -6z"/>
<path d="M2065 2519 c-5 -14 -1 -27 9 -37 15 -15 18 -15 39 6 22 23 22 23 3
38 -27 20 -44 18 -51 -7z"/>
<path d="M910 2505 c-11 -13 -10 -18 6 -30 22 -17 34 -18 54 -5 12 7 12 12 -4
29 -23 25 -39 26 -56 6z"/>
<path d="M2167 2467 c-6 -16 21 -47 41 -47 10 0 28 38 20 45 -1 2 -15 6 -29
10 -19 5 -28 2 -32 -8z"/>
<path d="M830 2455 c-10 -13 -10 -19 5 -35 14 -15 21 -17 40 -8 23 10 23 12 7
34 -20 27 -35 30 -52 9z"/>
<path d="M2385 2439 c-5 -8 -4 -10 3 -5 7 4 12 1 12 -6 0 -13 100 -114 132
-135 7 -4 20 -20 28 -35 8 -14 38 -59 65 -100 71 -104 101 -164 147 -291 43
-119 52 -152 69 -259 13 -77 32 -93 25 -20 -18 195 -120 447 -252 622 -91 119
-218 247 -229 229z"/>
<path d="M2261 2401 c-8 -14 -6 -22 8 -35 21 -19 33 -20 49 -4 9 9 7 17 -10
35 -26 28 -34 29 -47 4z"/>
<path d="M750 2395 c-24 -29 21 -60 48 -33 9 9 8 16 -5 30 -20 22 -27 22 -43
3z"/>
<path d="M2356 2328 c-22 -31 -20 -47 10 -74 31 -30 35 -30 62 -1 31 33 27 49
-18 74 l-39 23 -15 -22z"/>
<path d="M632 2324 c-29 -20 -28 -35 3 -64 25 -23 27 -23 53 -8 34 21 39 44
16 69 -21 23 -42 24 -72 3z"/>
<path d="M1410 2292 c-27 -27 -40 -47 -40 -66 0 -47 36 -101 90 -136 86 -55
98 -88 54 -146 -30 -39 -28 -49 8 -35 42 16 78 67 78 113 0 37 -6 46 -72 109
-68 64 -72 71 -73 111 0 24 4 53 8 66 12 33 -6 27 -53 -16z"/>
<path d="M549 2199 c-11 -22 0 -38 28 -39 15 0 36 37 28 50 -11 18 -44 11 -56
-11z"/>
<path d="M2453 2204 c-3 -9 2 -24 13 -34 17 -17 21 -17 38 -5 19 14 19 15 1
35 -22 24 -43 26 -52 4z"/>
<path d="M476 2105 c-6 -17 37 -50 54 -40 16 10 12 33 -9 45 -27 14 -38 13
-45 -5z"/>
<path d="M840 2115 c0 -6 95 -152 109 -167 4 -5 24 1 44 11 l37 19 -35 30
c-42 37 -155 115 -155 107z"/>
<path d="M2133 2052 c-45 -37 -85 -70 -88 -74 -5 -5 55 -38 70 -38 4 0 90 131
104 158 18 34 2 26 -86 -46z"/>
<path d="M2524 2105 c-4 -9 0 -23 8 -32 13 -12 19 -13 37 -1 29 17 22 42 -12
46 -18 2 -29 -2 -33 -13z"/>
<path d="M432 2028 c-18 -18 -14 -36 8 -43 24 -7 40 1 40 20 0 21 -34 37 -48
23z"/>
<path d="M2597 2017 c-15 -10 -16 -15 -4 -31 11 -15 17 -17 35 -7 18 10 20 15
12 31 -12 23 -20 25 -43 7z"/>
<path d="M382 1928 c-17 -17 -15 -36 6 -47 20 -11 42 3 42 26 0 19 -35 34 -48
21z"/>
<path d="M2636 1922 c-8 -14 5 -52 19 -52 19 0 36 25 29 44 -6 17 -39 22 -48
8z"/>
<path d="M1455 1851 c-159 -6 -207 -17 -219 -47 -3 -8 5 -20 17 -28 24 -16
175 -51 183 -43 3 2 -11 8 -31 11 -84 16 -107 44 -57 69 33 17 350 22 399 6
33 -11 50 -36 34 -52 -5 -5 -44 -18 -86 -28 -43 -10 -80 -21 -83 -24 -12 -12
175 9 217 24 56 20 72 43 48 69 -38 42 -152 54 -422 43z"/>
<path d="M2683 1829 c-16 -16 -4 -49 18 -49 25 0 35 26 19 45 -15 18 -22 19
-37 4z"/>
<path d="M342 1808 c4 -30 43 -33 43 -3 0 13 -8 21 -23 23 -20 3 -23 0 -20
-20z"/>
<path d="M2710 1725 c-7 -9 -10 -18 -7 -21 10 -10 47 7 47 22 0 19 -24 18 -40
-1z"/>
<path d="M301 1657 c-14 -14 -14 -54 1 -63 13 -8 38 22 38 47 0 21 -24 31 -39
16z"/>
<path d="M2726 1652 c-3 -5 -2 -18 1 -30 6 -25 41 -30 49 -7 11 28 -35 61 -50
37z"/>
<path d="M2152 1587 c-9 -10 -22 -42 -28 -70 -15 -63 -3 -92 42 -107 57 -19
40 -49 -36 -65 -42 -9 -81 -41 -73 -61 7 -19 53 -42 76 -39 9 2 17 -1 17 -6 0
-5 -6 -9 -14 -9 -7 0 -19 -7 -26 -15 -11 -13 -7 -15 23 -15 46 0 109 23 163
60 31 20 57 30 83 30 21 0 62 5 91 10 29 6 55 8 58 6 9 -10 -32 -165 -63 -238
-38 -88 -120 -218 -188 -298 -66 -76 -215 -185 -324 -237 -88 -42 -257 -92
-270 -80 -3 4 2 74 12 156 l18 149 64 12 c84 14 209 54 250 80 25 15 34 16 40
7 12 -19 133 -117 145 -117 12 0 -38 88 -71 126 -22 26 -23 27 -5 37 11 5 45
36 77 68 62 63 71 94 41 137 -26 38 -112 74 -184 79 l-65 4 -65 -62 c-65 -63
-147 -120 -187 -133 -30 -10 -40 -25 -47 -76 -5 -32 -2 -51 8 -65 13 -18 18
-19 92 -6 44 7 88 15 99 18 11 2 36 7 55 10 31 6 34 5 22 -10 -15 -17 -86 -40
-196 -63 -47 -10 -74 -22 -87 -37 -18 -22 -35 -103 -30 -144 1 -13 -2 -23 -6
-23 -5 0 -10 -31 -11 -70 -1 -92 11 -105 86 -96 71 8 194 50 255 87 26 16 49
29 52 29 6 0 82 50 142 93 47 34 116 109 165 178 10 13 31 42 46 64 56 78 119
221 141 316 l22 94 -26 23 c-15 12 -29 20 -33 18 -4 -2 -29 -7 -57 -10 -27 -4
-61 -10 -74 -13 -18 -5 -22 -3 -16 7 5 8 -22 -3 -58 -23 -37 -20 -67 -34 -67
-32 0 3 15 19 34 35 19 17 44 51 56 77 20 42 21 53 11 102 -11 57 -46 105 -84
117 -42 13 -78 10 -95 -9z m99 -27 c48 -26 65 -129 29 -187 -29 -47 -91 -85
-152 -91 -40 -4 -50 -2 -46 9 3 8 25 17 50 20 25 4 58 15 72 24 28 19 66 66
66 83 0 6 -30 14 -66 17 -55 6 -64 10 -58 24 3 9 9 37 11 64 5 46 6 47 40 47
19 0 43 -5 54 -10z m-138 -414 c18 -7 43 -25 56 -39 20 -23 22 -29 11 -42 -37
-45 -202 -96 -417 -130 -35 -6 -43 -4 -43 9 0 9 6 16 13 16 37 0 142 65 209
129 79 77 105 85 171 57z m100 -118 c-58 -61 -211 -117 -406 -148 -80 -13 -93
-11 -84 13 3 9 29 16 74 20 80 8 256 50 319 77 24 11 57 33 75 49 40 39 60 29
22 -11z m-115 -129 c-2 -6 -7 -10 -11 -10 -4 1 -14 1 -22 1 -8 0 -15 5 -15 10
0 6 12 10 26 10 14 0 24 -5 22 -11z"/>
<path d="M63 1426 c2 -6 12 -13 22 -14 10 -2 15 0 11 6 -3 6 2 12 11 15 10 2
3 4 -15 4 -19 0 -31 -5 -29 -11z"/>
<path d="M188 1320 c-8 -25 30 -206 66 -311 75 -220 201 -406 391 -579 130
-119 313 -227 455 -270 41 -12 84 -26 96 -32 27 -12 236 -46 248 -40 17 10
-26 30 -77 37 -127 17 -282 65 -402 125 -119 59 -117 59 -220 135 -80 60 -180
155 -222 210 -12 17 -40 53 -61 80 -41 53 -97 144 -130 211 -44 87 -112 309
-112 367 -1 36 -25 88 -32 67z"/>
<path d="M2851 1308 c-5 -13 -17 -66 -26 -118 -17 -98 -33 -158 -47 -175 -4
-5 -8 -17 -8 -27 0 -10 -4 -26 -9 -36 -6 -9 -26 -49 -45 -88 -61 -125 -139
-232 -288 -396 -40 -44 -175 -146 -243 -183 -27 -15 -54 -31 -60 -35 -5 -4
-28 -13 -50 -20 -22 -7 -44 -16 -50 -20 -25 -19 -180 -64 -278 -80 -59 -10
-111 -20 -114 -24 -17 -16 16 -19 102 -8 273 34 598 206 759 401 33 40 65 75
71 79 6 4 30 32 53 64 134 182 231 428 247 626 6 65 1 78 -14 40z"/>
<path d="M296 1253 c-3 -3 -6 -17 -6 -30 0 -20 5 -24 22 -21 29 4 35 34 10 47
-11 6 -22 7 -26 4z"/>
<path d="M2725 1239 c-5 -14 -2 -25 6 -30 21 -13 27 -11 40 12 9 17 8 23 -2
30 -23 14 -37 10 -44 -12z"/>
<path d="M2694 1135 c-8 -19 3 -32 31 -37 14 -2 21 3 23 20 2 12 -1 22 -6 22
-6 0 -17 3 -26 6 -10 4 -18 0 -22 -11z"/>
<path d="M310 1128 c0 -29 16 -41 39 -28 12 6 20 17 18 23 -5 17 -57 22 -57 5z"/>
<path d="M351 1041 c-19 -12 -6 -43 16 -39 10 2 18 12 18 22 0 22 -14 29 -34
17z"/>
<path d="M2673 1034 c-4 -11 1 -22 12 -30 22 -16 39 -5 33 22 -4 25 -36 30
-45 8z"/>
<path d="M2631 941 c-9 -17 -8 -22 10 -32 28 -14 49 3 33 28 -16 25 -31 27
-43 4z"/>
<path d="M376 942 c-3 -5 1 -18 9 -28 11 -15 17 -17 32 -8 10 6 18 17 18 25 0
16 -50 25 -59 11z"/>
<path d="M2579 844 c-11 -14 -11 -18 6 -30 25 -19 40 -13 40 17 0 29 -26 37
-46 13z"/>
<path d="M436 841 c-9 -14 4 -41 19 -41 17 0 38 27 30 40 -8 12 -42 13 -49 1z"/>
<path d="M500 755 c-15 -18 -6 -45 13 -45 8 0 20 7 27 15 10 12 10 18 0 30
-16 19 -24 19 -40 0z"/>
<path d="M2524 749 c-16 -17 -16 -22 -4 -29 8 -6 20 -10 26 -10 12 0 40 28 33
33 -2 1 -11 8 -20 15 -13 10 -19 8 -35 -9z"/>
<path d="M563 683 c-20 -8 -15 -41 8 -54 30 -16 46 2 31 36 -12 25 -17 28 -39
18z"/>
<path d="M2456 664 c-8 -21 1 -34 24 -34 25 0 35 17 20 35 -16 20 -36 19 -44
-1z"/>
<path d="M2381 605 c-35 -30 -39 -54 -12 -79 17 -15 19 -15 32 0 7 9 23 20 36
25 29 11 29 30 -1 58 l-23 22 -32 -26z"/>
<path d="M613 597 c-9 -19 -6 -29 17 -57 l28 -35 26 24 c34 32 33 57 -4 76
-40 21 -55 19 -67 -8z"/>
<path d="M747 482 c-13 -14 -14 -21 -5 -30 26 -26 64 -2 47 30 -12 23 -22 23
-42 0z"/>
<path d="M2267 482 c-13 -14 -14 -21 -5 -30 16 -16 29 -15 52 3 16 12 17 17 6
30 -17 20 -33 19 -53 -3z"/>
<path d="M830 423 c-22 -15 -22 -17 -5 -30 25 -18 52 -17 59 3 8 22 8 22 -12
33 -14 7 -25 6 -42 -6z"/>
<path d="M2165 416 c-22 -16 -14 -46 12 -46 31 0 46 16 38 39 -7 24 -23 27
-50 7z"/>
<path d="M914 368 c-4 -6 3 -19 16 -30 21 -17 25 -17 38 -4 8 8 12 22 9 30 -7
19 -52 22 -63 4z"/>
<path d="M2070 355 c-14 -17 -7 -45 12 -45 26 0 40 17 33 39 -7 25 -27 27 -45
6z"/>
<path d="M1017 316 c-3 -8 1 -20 9 -27 12 -10 18 -9 31 3 8 9 12 21 9 27 -10
16 -43 14 -49 -3z"/>
<path d="M1990 316 c0 -25 12 -46 26 -46 17 0 17 1 4 34 -10 28 -30 35 -30 12z"/>
<path d="M1114 285 c-9 -23 3 -45 26 -45 25 0 37 25 20 45 -16 19 -39 19 -46
0z"/>
<path d="M1904 289 c-9 -16 21 -43 40 -36 9 4 16 16 16 27 0 15 -7 20 -24 20
-14 0 -28 -5 -32 -11z"/>
<path d="M1821 261 c-16 -10 -8 -41 11 -41 23 0 39 16 32 33 -7 19 -22 21 -43
8z"/>
<path d="M1217 253 c-14 -13 -6 -28 19 -40 22 -10 26 -9 33 10 5 12 7 25 4 30
-5 9 -47 9 -56 0z"/>
<path d="M1722 241 c-19 -12 -11 -45 12 -49 27 -6 40 12 27 37 -13 23 -19 25
-39 12z"/>
<path d="M1322 218 c2 -15 11 -24 26 -26 18 -3 22 1 22 22 0 21 -5 26 -26 26
-21 0 -25 -4 -22 -22z"/>
</g>
</svg>
